# xmcd
#
# Track frame offsets:
# 150
# 600
# 22613
# 43775
# 65677
# 88143
# 110301
# 133159
# 152594
# 175727
# 196749
# 220107
#
# Disc length: 3265 seconds
#
# Revision: 0
# Processed by: cddbd v1.5.1PL2 Copyright (c) Steve Scherf et al.
# Submitted via: Audion 3.0.2 (http://www.panic.com/audion/)
#
DISCID=940cbf0c
DTITLE=Svek cd 3 av 7 - Karin Alvtegen
DYEAR=1900
DGENRE=
TTITLE0=01-Karin Alvtegen - Svek - .mp3
TTITLE1=02-Karin Alvtegen - Svek - .mp3
TTITLE2=03-Karin Alvtegen - Svek - .mp3
TTITLE3=04-Karin Alvtegen - Svek - .mp3
TTITLE4=05-Karin Alvtegen - Svek - .mp3
TTITLE5=06-Karin Alvtegen - Svek - .mp3
TTITLE6=07-Karin Alvtegen - Svek - .mp3
TTITLE7=08-Karin Alvtegen - Svek - .mp3
TTITLE8=09-Karin Alvtegen - Svek - .mp3
TTITLE9=10-Karin Alvtegen - Svek - .mp3
TTITLE10=11-Karin Alvtegen - Svek - .mp3
TTITLE11=12-Karin Alvtegen - Svek - .mp3
EXTD=
EXTT0=
EXTT1=
EXTT2=
EXTT3=
EXTT4=
EXTT5=
EXTT6=
EXTT7=
EXTT8=
EXTT9=
EXTT10=
EXTT11=
PLAYORDER=
